<?xml version="1.0" encoding="UTF-8" standalone="no"?>
<svg xmlns="http://www.w3.org/2000/svg" xmlns:xlink="http://www.w3.org/1999/xlink" contentScriptType="application/ecmascript" contentStyleType="text/css" height="507px" preserveAspectRatio="none" style="width:458px;height:507px;" version="1.1" viewBox="0 0 458 507" width="458px" zoomAndPan="magnify"><defs><filter height="300%" id="f188zvo003b9q7" width="300%" x="-1" y="-1"><feGaussianBlur result="blurOut" stdDeviation="2.0"/><feColorMatrix in="blurOut" result="blurOut2" type="matrix" values="0 0 0 0 0 0 0 0 0 0 0 0 0 0 0 0 0 0 .4 0"/><feOffset dx="4.0" dy="4.0" in="blurOut2" result="blurOut3"/><feBlend in="SourceGraphic" in2="blurOut3" mode="normal"/></filter></defs><g><ellipse cx="91.5" cy="48.6982" fill="#000000" filter="url(#f188zvo003b9q7)" rx="10" ry="10" style="stroke:none;stroke-width:1.0;"/><rect fill="#FEFECE" filter="url(#f188zvo003b9q7)" height="33.9688" rx="12.5" ry="12.5" style="stroke:#A80036;stroke-width:1.5;" width="141" x="21" y="78.6982"/><text fill="#000000" font-family="sans-serif" font-size="12" lengthAdjust="spacing" textLength="121" x="31" y="99.8369">Pull request created</text><rect fill="#FEFECE" filter="url(#f188zvo003b9q7)" height="33.9688" rx="12.5" ry="12.5" style="stroke:#A80036;stroke-width:1.5;" width="138" x="22.5" y="132.667"/><text fill="#000000" font-family="sans-serif" font-size="12" lengthAdjust="spacing" textLength="118" x="32.5" y="153.8057">Workflow triggered</text><line style="stroke:#000000;stroke-width:2.0;" x1="15" x2="15" y1="12.7451" y2="490.4482"/><rect fill="#FEFECE" filter="url(#f188zvo003b9q7)" height="33.9688" rx="12.5" ry="12.5" style="stroke:#A80036;stroke-width:1.5;" width="176" x="215" y="186.6357"/><text fill="#000000" font-family="sans-serif" font-size="12" lengthAdjust="spacing" textLength="156" x="225" y="207.7744">Docker container spun up</text><rect fill="#FEFECE" filter="url(#f188zvo003b9q7)" height="33.9688" rx="12.5" ry="12.5" style="stroke:#A80036;stroke-width:1.5;" width="193" x="206.5" y="240.6045"/><text fill="#000000" font-family="sans-serif" font-size="12" lengthAdjust="spacing" textLength="173" x="216.5" y="261.7432">Blog repository checked out</text><rect fill="#FEFECE" filter="url(#f188zvo003b9q7)" height="33.9688" rx="12.5" ry="12.5" style="stroke:#A80036;stroke-width:1.5;" width="230" x="188" y="294.5732"/><text fill="#000000" font-family="sans-serif" font-size="12" lengthAdjust="spacing" textLength="210" x="198" y="315.7119">Added and modified files reported</text><rect fill="#FEFECE" filter="url(#f188zvo003b9q7)" height="33.9688" rx="12.5" ry="12.5" style="stroke:#A80036;stroke-width:1.5;" width="218" x="194" y="348.542"/><text fill="#000000" font-family="sans-serif" font-size="12" lengthAdjust="spacing" textLength="198" x="204" y="369.6807">Link finder runs on reported files</text><rect fill="#FEFECE" filter="url(#f188zvo003b9q7)" height="47.9375" rx="12.5" ry="12.5" style="stroke:#A80036;stroke-width:1.5;" width="250" x="178" y="402.5107"/><text fill="#000000" font-family="sans-serif" font-size="12" lengthAdjust="spacing" textLength="230" x="188" y="423.6494">Discovered links submitted to Archive</text><text fill="#000000" font-family="sans-serif" font-size="12" lengthAdjust="spacing" textLength="67" x="188" y="437.6182">Box server</text><ellipse cx="303" cy="480.4482" fill="#FFFFFF" filter="url(#f188zvo003b9q7)" rx="10" ry="10" style="stroke:#000000;stroke-width:1.5;"/><line style="stroke:#000000;stroke-width:2.5;" x1="296.8128" x2="309.1872" y1="474.2611" y2="486.6354"/><line style="stroke:#000000;stroke-width:2.5;" x1="309.1872" x2="296.8128" y1="474.2611" y2="486.6354"/><line style="stroke:#000000;stroke-width:2.0;" x1="172" x2="172" y1="12.7451" y2="490.4482"/><line style="stroke:#000000;stroke-width:2.0;" x1="438" x2="438" y1="12.7451" y2="490.4482"/><line style="stroke:#A80036;stroke-width:1.5;" x1="91.5" x2="91.5" y1="58.6982" y2="78.6982"/><polygon fill="#A80036" points="87.5,68.6982,91.5,78.6982,95.5,68.6982,91.5,72.6982" style="stroke:#A80036;stroke-width:1.0;"/><line style="stroke:#A80036;stroke-width:1.5;" x1="91.5" x2="91.5" y1="112.667" y2="132.667"/><polygon fill="#A80036" points="87.5,122.667,91.5,132.667,95.5,122.667,91.5,126.667" style="stroke:#A80036;stroke-width:1.0;"/><line style="stroke:#A80036;stroke-width:1.5;" x1="303" x2="303" y1="220.6045" y2="240.6045"/><polygon fill="#A80036" points="299,230.6045,303,240.6045,307,230.6045,303,234.6045" style="stroke:#A80036;stroke-width:1.0;"/><line style="stroke:#A80036;stroke-width:1.5;" x1="303" x2="303" y1="274.5732" y2="294.5732"/><polygon fill="#A80036" points="299,284.5732,303,294.5732,307,284.5732,303,288.5732" style="stroke:#A80036;stroke-width:1.0;"/><line style="stroke:#A80036;stroke-width:1.5;" x1="303" x2="303" y1="328.542" y2="348.542"/><polygon fill="#A80036" points="299,338.542,303,348.542,307,338.542,303,342.542" style="stroke:#A80036;stroke-width:1.0;"/><line style="stroke:#A80036;stroke-width:1.5;" x1="303" x2="303" y1="382.5107" y2="402.5107"/><polygon fill="#A80036" points="299,392.5107,303,402.5107,307,392.5107,303,396.5107" style="stroke:#A80036;stroke-width:1.0;"/><line style="stroke:#A80036;stroke-width:1.5;" x1="303" x2="303" y1="450.4482" y2="470.4482"/><polygon fill="#A80036" points="299,460.4482,303,470.4482,307,460.4482,303,464.4482" style="stroke:#A80036;stroke-width:1.0;"/><line style="stroke:#A80036;stroke-width:1.5;" x1="91.5" x2="91.5" y1="166.6357" y2="171.6357"/><line style="stroke:#A80036;stroke-width:1.5;" x1="91.5" x2="303" y1="171.6357" y2="171.6357"/><line style="stroke:#A80036;stroke-width:1.5;" x1="303" x2="303" y1="171.6357" y2="186.6357"/><polygon fill="#A80036" points="299,176.6357,303,186.6357,307,176.6357,303,180.6357" style="stroke:#A80036;stroke-width:1.0;"/><text fill="#000000" font-family="sans-serif" font-size="18" lengthAdjust="spacing" textLength="65" x="61" y="29.4531">GitHub</text><text fill="#000000" font-family="sans-serif" font-size="18" lengthAdjust="spacing" textLength="158" x="226" y="29.4531">GitHub Workflow</text><!--MD5=[8ad35ffebb1e0c397540d4ebcd86a35b]
@startuml
|GitHub|
start
:Pull request created;
:Workflow triggered;

|GitHub Workflow|
:Docker container spun up;
:Blog repository checked out;
:Added and modified files reported;
:Link finder runs on reported files;
:Discovered links submitted to Archive 
Box server;
end
@enduml

PlantUML version 1.2021.6beta2(Unknown compile time)
(GPL source distribution)
Java Runtime: Java(TM) SE Runtime Environment
JVM: Java HotSpot(TM) 64-Bit Server VM
Default Encoding: UTF-8
Language: en
Country: US
--></g></svg>