<?xml version="1.0" encoding="UTF-8" standalone="no"?>
<svg xmlns="http://www.w3.org/2000/svg" xmlns:xlink="http://www.w3.org/1999/xlink" contentScriptType="application/ecmascript" contentStyleType="text/css" height="1025px" preserveAspectRatio="none" style="width:1095px;height:1025px;" version="1.1" viewBox="0 0 1095 1025" width="1095px" zoomAndPan="magnify"><defs><filter height="300%" id="fs7a5qsjdpgw9" width="300%" x="-1" y="-1"><feGaussianBlur result="blurOut" stdDeviation="2.0"/><feColorMatrix in="blurOut" result="blurOut2" type="matrix" values="0 0 0 0 0 0 0 0 0 0 0 0 0 0 0 0 0 0 .4 0"/><feOffset dx="4.0" dy="4.0" in="blurOut2" result="blurOut3"/><feBlend in="SourceGraphic" in2="blurOut3" mode="normal"/></filter></defs><g><rect fill="#FFFFFF" filter="url(#fs7a5qsjdpgw9)" height="341.4609" style="stroke:#A80036;stroke-width:1.0;" width="10" x="313.5" y="207.9609"/><rect fill="#FFFFFF" filter="url(#fs7a5qsjdpgw9)" height="91.3984" style="stroke:#A80036;stroke-width:1.0;" width="10" x="438.5" y="207.9609"/><rect fill="#FFFFFF" filter="url(#fs7a5qsjdpgw9)" height="71.2656" style="stroke:#A80036;stroke-width:1.0;" width="10" x="679.5" y="348.625"/><rect fill="#FFFFFF" filter="url(#fs7a5qsjdpgw9)" height="100.3984" style="stroke:#A80036;stroke-width:1.0;" width="10" x="679.5" y="677.625"/><rect fill="#FFFFFF" filter="url(#fs7a5qsjdpgw9)" height="116.5313" style="stroke:#A80036;stroke-width:1.0;" width="10" x="821.5" y="807.1563"/><line style="stroke:#A80036;stroke-width:1.0;" x1="32" x2="32" y1="88.2969" y2="615.6875"/><line style="stroke:#A80036;stroke-width:1.0;stroke-dasharray:1.0,4.0;" x1="32" x2="32" y1="615.6875" y2="656.4922"/><line style="stroke:#A80036;stroke-width:1.0;" x1="32" x2="32" y1="656.4922" y2="941.6875"/><line style="stroke:#A80036;stroke-width:1.0;" x1="177.5" x2="177.5" y1="88.2969" y2="615.6875"/><line style="stroke:#A80036;stroke-width:1.0;stroke-dasharray:1.0,4.0;" x1="177.5" x2="177.5" y1="615.6875" y2="656.4922"/><line style="stroke:#A80036;stroke-width:1.0;" x1="177.5" x2="177.5" y1="656.4922" y2="941.6875"/><line style="stroke:#A80036;stroke-width:1.0;" x1="318" x2="318" y1="88.2969" y2="615.6875"/><line style="stroke:#A80036;stroke-width:1.0;stroke-dasharray:1.0,4.0;" x1="318" x2="318" y1="615.6875" y2="656.4922"/><line style="stroke:#A80036;stroke-width:1.0;" x1="318" x2="318" y1="656.4922" y2="941.6875"/><line style="stroke:#A80036;stroke-width:1.0;" x1="443" x2="443" y1="88.2969" y2="615.6875"/><line style="stroke:#A80036;stroke-width:1.0;stroke-dasharray:1.0,4.0;" x1="443" x2="443" y1="615.6875" y2="656.4922"/><line style="stroke:#A80036;stroke-width:1.0;" x1="443" x2="443" y1="656.4922" y2="941.6875"/><line style="stroke:#A80036;stroke-width:1.0;" x1="565.5" x2="565.5" y1="88.2969" y2="615.6875"/><line style="stroke:#A80036;stroke-width:1.0;stroke-dasharray:1.0,4.0;" x1="565.5" x2="565.5" y1="615.6875" y2="656.4922"/><line style="stroke:#A80036;stroke-width:1.0;" x1="565.5" x2="565.5" y1="656.4922" y2="941.6875"/><line style="stroke:#A80036;stroke-width:1.0;" x1="684.5" x2="684.5" y1="88.2969" y2="615.6875"/><line style="stroke:#A80036;stroke-width:1.0;stroke-dasharray:1.0,4.0;" x1="684.5" x2="684.5" y1="615.6875" y2="656.4922"/><line style="stroke:#A80036;stroke-width:1.0;" x1="684.5" x2="684.5" y1="656.4922" y2="941.6875"/><line style="stroke:#A80036;stroke-width:1.0;" x1="826.5" x2="826.5" y1="88.2969" y2="615.6875"/><line style="stroke:#A80036;stroke-width:1.0;stroke-dasharray:1.0,4.0;" x1="826.5" x2="826.5" y1="615.6875" y2="656.4922"/><line style="stroke:#A80036;stroke-width:1.0;" x1="826.5" x2="826.5" y1="656.4922" y2="941.6875"/><line style="stroke:#A80036;stroke-width:1.0;" x1="1009.5" x2="1009.5" y1="88.2969" y2="615.6875"/><line style="stroke:#A80036;stroke-width:1.0;stroke-dasharray:1.0,4.0;" x1="1009.5" x2="1009.5" y1="615.6875" y2="656.4922"/><line style="stroke:#A80036;stroke-width:1.0;" x1="1009.5" x2="1009.5" y1="656.4922" y2="941.6875"/><text fill="#000000" font-family="sans-serif" font-size="14" lengthAdjust="spacing" textLength="49" x="5" y="84.9951">Author</text><ellipse cx="32.5" cy="15" fill="#FEFECE" filter="url(#fs7a5qsjdpgw9)" rx="8" ry="8" style="stroke:#A80036;stroke-width:2.0;"/><path d="M32.5,23 L32.5,50 M19.5,31 L45.5,31 M32.5,50 L19.5,65 M32.5,50 L45.5,65 " fill="none" filter="url(#fs7a5qsjdpgw9)" style="stroke:#A80036;stroke-width:2.0;"/><text fill="#000000" font-family="sans-serif" font-size="14" lengthAdjust="spacing" textLength="49" x="5" y="953.6826">Author</text><ellipse cx="32.5" cy="966.9844" fill="#FEFECE" filter="url(#fs7a5qsjdpgw9)" rx="8" ry="8" style="stroke:#A80036;stroke-width:2.0;"/><path d="M32.5,974.9844 L32.5,1001.9844 M19.5,982.9844 L45.5,982.9844 M32.5,1001.9844 L19.5,1016.9844 M32.5,1001.9844 L45.5,1016.9844 " fill="none" filter="url(#fs7a5qsjdpgw9)" style="stroke:#A80036;stroke-width:2.0;"/><rect fill="#FEFECE" filter="url(#fs7a5qsjdpgw9)" height="30.2969" style="stroke:#A80036;stroke-width:1.5;" width="46" x="152.5" y="53"/><text fill="#000000" font-family="sans-serif" font-size="14" lengthAdjust="spacing" textLength="32" x="159.5" y="72.9951">Blog</text><rect fill="#FEFECE" filter="url(#fs7a5qsjdpgw9)" height="30.2969" style="stroke:#A80036;stroke-width:1.5;" width="46" x="152.5" y="940.6875"/><text fill="#000000" font-family="sans-serif" font-size="14" lengthAdjust="spacing" textLength="32" x="159.5" y="960.6826">Blog</text><rect fill="#FEFECE" filter="url(#fs7a5qsjdpgw9)" height="30.2969" style="stroke:#A80036;stroke-width:1.5;" width="129" x="252" y="53"/><text fill="#000000" font-family="sans-serif" font-size="14" lengthAdjust="spacing" textLength="115" x="259" y="72.9951">Archiving Script</text><rect fill="#FEFECE" filter="url(#fs7a5qsjdpgw9)" height="30.2969" style="stroke:#A80036;stroke-width:1.5;" width="129" x="252" y="940.6875"/><text fill="#000000" font-family="sans-serif" font-size="14" lengthAdjust="spacing" textLength="115" x="259" y="960.6826">Archiving Script</text><rect fill="#FEFECE" filter="url(#fs7a5qsjdpgw9)" height="30.2969" style="stroke:#A80036;stroke-width:1.5;" width="93" x="395" y="53"/><text fill="#000000" font-family="sans-serif" font-size="14" lengthAdjust="spacing" textLength="79" x="402" y="72.9951">Link Finder</text><rect fill="#FEFECE" filter="url(#fs7a5qsjdpgw9)" height="30.2969" style="stroke:#A80036;stroke-width:1.5;" width="93" x="395" y="940.6875"/><text fill="#000000" font-family="sans-serif" font-size="14" lengthAdjust="spacing" textLength="79" x="402" y="960.6826">Link Finder</text><rect fill="#FEFECE" filter="url(#fs7a5qsjdpgw9)" height="30.2969" style="stroke:#A80036;stroke-width:1.5;" width="102" x="512.5" y="53"/><text fill="#000000" font-family="sans-serif" font-size="14" lengthAdjust="spacing" textLength="88" x="519.5" y="72.9951">Link Archive</text><rect fill="#FEFECE" filter="url(#fs7a5qsjdpgw9)" height="30.2969" style="stroke:#A80036;stroke-width:1.5;" width="102" x="512.5" y="940.6875"/><text fill="#000000" font-family="sans-serif" font-size="14" lengthAdjust="spacing" textLength="88" x="519.5" y="960.6826">Link Archive</text><rect fill="#FEFECE" filter="url(#fs7a5qsjdpgw9)" height="30.2969" style="stroke:#A80036;stroke-width:1.5;" width="108" x="628.5" y="53"/><text fill="#000000" font-family="sans-serif" font-size="14" lengthAdjust="spacing" textLength="94" x="635.5" y="72.9951">Link Checker</text><rect fill="#FEFECE" filter="url(#fs7a5qsjdpgw9)" height="30.2969" style="stroke:#A80036;stroke-width:1.5;" width="108" x="628.5" y="940.6875"/><text fill="#000000" font-family="sans-serif" font-size="14" lengthAdjust="spacing" textLength="94" x="635.5" y="960.6826">Link Checker</text><rect fill="#FEFECE" filter="url(#fs7a5qsjdpgw9)" height="30.2969" style="stroke:#A80036;stroke-width:1.5;" width="148" x="750.5" y="53"/><text fill="#000000" font-family="sans-serif" font-size="14" lengthAdjust="spacing" textLength="134" x="757.5" y="72.9951">Linx Fixing Process</text><rect fill="#FEFECE" filter="url(#fs7a5qsjdpgw9)" height="30.2969" style="stroke:#A80036;stroke-width:1.5;" width="148" x="750.5" y="940.6875"/><text fill="#000000" font-family="sans-serif" font-size="14" lengthAdjust="spacing" textLength="134" x="757.5" y="960.6826">Linx Fixing Process</text><rect fill="#FEFECE" filter="url(#fs7a5qsjdpgw9)" height="30.2969" style="stroke:#A80036;stroke-width:1.5;" width="148" x="933.5" y="53"/><text fill="#000000" font-family="sans-serif" font-size="14" lengthAdjust="spacing" textLength="134" x="940.5" y="72.9951">Archive File Server</text><rect fill="#FEFECE" filter="url(#fs7a5qsjdpgw9)" height="30.2969" style="stroke:#A80036;stroke-width:1.5;" width="148" x="933.5" y="940.6875"/><text fill="#000000" font-family="sans-serif" font-size="14" lengthAdjust="spacing" textLength="134" x="940.5" y="960.6826">Archive File Server</text><rect fill="#FFFFFF" filter="url(#fs7a5qsjdpgw9)" height="341.4609" style="stroke:#A80036;stroke-width:1.0;" width="10" x="313.5" y="207.9609"/><rect fill="#FFFFFF" filter="url(#fs7a5qsjdpgw9)" height="91.3984" style="stroke:#A80036;stroke-width:1.0;" width="10" x="438.5" y="207.9609"/><rect fill="#FFFFFF" filter="url(#fs7a5qsjdpgw9)" height="71.2656" style="stroke:#A80036;stroke-width:1.0;" width="10" x="679.5" y="348.625"/><rect fill="#FFFFFF" filter="url(#fs7a5qsjdpgw9)" height="100.3984" style="stroke:#A80036;stroke-width:1.0;" width="10" x="679.5" y="677.625"/><rect fill="#FFFFFF" filter="url(#fs7a5qsjdpgw9)" height="116.5313" style="stroke:#A80036;stroke-width:1.0;" width="10" x="821.5" y="807.1563"/><polygon fill="#A80036" points="165.5,130.5625,175.5,134.5625,165.5,138.5625,169.5,134.5625" style="stroke:#A80036;stroke-width:1.0;"/><line style="stroke:#A80036;stroke-width:1.0;" x1="32.5" x2="171.5" y1="134.5625" y2="134.5625"/><text fill="#000000" font-family="sans-serif" font-size="13" lengthAdjust="spacing" textLength="111" x="39.5" y="114.3638">Pipeline triggered</text><text fill="#000000" font-family="sans-serif" font-size="13" lengthAdjust="spacing" textLength="98" x="39.5" y="129.4966">via pull request</text><polygon fill="#A80036" points="306.5,174.8281,316.5,178.8281,306.5,182.8281,310.5,178.8281" style="stroke:#A80036;stroke-width:1.0;"/><line style="stroke:#A80036;stroke-width:1.0;" x1="177.5" x2="312.5" y1="178.8281" y2="178.8281"/><text fill="#000000" font-family="sans-serif" font-size="13" lengthAdjust="spacing" textLength="107" x="184.5" y="158.6294">Present files and</text><text fill="#000000" font-family="sans-serif" font-size="13" lengthAdjust="spacing" textLength="104" x="188.5" y="173.7622">trigger archiving</text><polygon fill="#A80036" points="426.5,203.9609,436.5,207.9609,426.5,211.9609,430.5,207.9609" style="stroke:#A80036;stroke-width:1.0;"/><line style="stroke:#A80036;stroke-width:1.0;" x1="323.5" x2="432.5" y1="207.9609" y2="207.9609"/><text fill="#000000" font-family="sans-serif" font-size="13" lengthAdjust="spacing" textLength="79" x="330.5" y="202.895">Present files</text><line style="stroke:#A80036;stroke-width:1.0;" x1="448.5" x2="490.5" y1="237.0938" y2="237.0938"/><line style="stroke:#A80036;stroke-width:1.0;" x1="490.5" x2="490.5" y1="237.0938" y2="250.0938"/><line style="stroke:#A80036;stroke-width:1.0;" x1="449.5" x2="490.5" y1="250.0938" y2="250.0938"/><polygon fill="#A80036" points="459.5,246.0938,449.5,250.0938,459.5,254.0938,455.5,250.0938" style="stroke:#A80036;stroke-width:1.0;"/><text fill="#000000" font-family="sans-serif" font-size="13" lengthAdjust="spacing" textLength="98" x="455.5" y="232.0278">Search for links</text><polygon fill="#A80036" points="334.5,295.3594,324.5,299.3594,334.5,303.3594,330.5,299.3594" style="stroke:#A80036;stroke-width:1.0;"/><line style="stroke:#A80036;stroke-width:1.0;stroke-dasharray:2.0,2.0;" x1="328.5" x2="442.5" y1="299.3594" y2="299.3594"/><text fill="#000000" font-family="sans-serif" font-size="13" lengthAdjust="spacing" textLength="73" x="340.5" y="294.2935">Links found</text><path d="M166,263.0938 L166,318.0938 L304,318.0938 L304,273.0938 L294,263.0938 L166,263.0938 " fill="#FBFB77" filter="url(#fs7a5qsjdpgw9)" style="stroke:#A80036;stroke-width:1.0;"/><path d="M294,263.0938 L294,273.0938 L304,273.0938 L294,263.0938 " fill="#FBFB77" style="stroke:#A80036;stroke-width:1.0;"/><text fill="#000000" font-family="sans-serif" font-size="13" lengthAdjust="spacing" textLength="113" x="172" y="280.1606">Initial archive is in</text><text fill="#000000" font-family="sans-serif" font-size="13" lengthAdjust="spacing" textLength="112" x="172" y="295.2935">lieu of immediate</text><text fill="#000000" font-family="sans-serif" font-size="13" lengthAdjust="spacing" textLength="49" x="172" y="310.4263">caching</text><polygon fill="#A80036" points="667.5,344.625,677.5,348.625,667.5,352.625,671.5,348.625" style="stroke:#A80036;stroke-width:1.0;"/><line style="stroke:#A80036;stroke-width:1.0;" x1="323.5" x2="673.5" y1="348.625" y2="348.625"/><text fill="#000000" font-family="sans-serif" font-size="13" lengthAdjust="spacing" textLength="163" x="330.5" y="343.5591">Present links for checking</text><line style="stroke:#A80036;stroke-width:1.0;" x1="689.5" x2="731.5" y1="377.7578" y2="377.7578"/><line style="stroke:#A80036;stroke-width:1.0;" x1="731.5" x2="731.5" y1="377.7578" y2="390.7578"/><line style="stroke:#A80036;stroke-width:1.0;" x1="690.5" x2="731.5" y1="390.7578" y2="390.7578"/><polygon fill="#A80036" points="700.5,386.7578,690.5,390.7578,700.5,394.7578,696.5,390.7578" style="stroke:#A80036;stroke-width:1.0;"/><text fill="#000000" font-family="sans-serif" font-size="13" lengthAdjust="spacing" textLength="71" x="696.5" y="372.6919">Check links</text><polygon fill="#A80036" points="334.5,415.8906,324.5,419.8906,334.5,423.8906,330.5,419.8906" style="stroke:#A80036;stroke-width:1.0;"/><line style="stroke:#A80036;stroke-width:1.0;stroke-dasharray:2.0,2.0;" x1="328.5" x2="683.5" y1="419.8906" y2="419.8906"/><text fill="#000000" font-family="sans-serif" font-size="13" lengthAdjust="spacing" textLength="106" x="340.5" y="414.8247">Link check result</text><polygon fill="#A80036" points="553.5,445.0234,563.5,449.0234,553.5,453.0234,557.5,449.0234" style="stroke:#A80036;stroke-width:1.0;"/><line style="stroke:#A80036;stroke-width:1.0;" x1="323.5" x2="559.5" y1="449.0234" y2="449.0234"/><text fill="#000000" font-family="sans-serif" font-size="13" lengthAdjust="spacing" textLength="165" x="330.5" y="443.9575">Present links for archiving</text><line style="stroke:#A80036;stroke-width:1.0;" x1="565.5" x2="607.5" y1="478.1563" y2="478.1563"/><line style="stroke:#A80036;stroke-width:1.0;" x1="607.5" x2="607.5" y1="478.1563" y2="491.1563"/><line style="stroke:#A80036;stroke-width:1.0;" x1="566.5" x2="607.5" y1="491.1563" y2="491.1563"/><polygon fill="#A80036" points="576.5,487.1563,566.5,491.1563,576.5,495.1563,572.5,491.1563" style="stroke:#A80036;stroke-width:1.0;"/><text fill="#000000" font-family="sans-serif" font-size="13" lengthAdjust="spacing" textLength="80" x="572.5" y="473.0903">Archive links</text><polygon fill="#A80036" points="334.5,516.2891,324.5,520.2891,334.5,524.2891,330.5,520.2891" style="stroke:#A80036;stroke-width:1.0;"/><line style="stroke:#A80036;stroke-width:1.0;stroke-dasharray:2.0,2.0;" x1="328.5" x2="564.5" y1="520.2891" y2="520.2891"/><text fill="#000000" font-family="sans-serif" font-size="13" lengthAdjust="spacing" textLength="91" x="340.5" y="515.2231">Links archived</text><polygon fill="#A80036" points="188.5,545.4219,178.5,549.4219,188.5,553.4219,184.5,549.4219" style="stroke:#A80036;stroke-width:1.0;"/><line style="stroke:#A80036;stroke-width:1.0;stroke-dasharray:2.0,2.0;" x1="182.5" x2="317.5" y1="549.4219" y2="549.4219"/><text fill="#000000" font-family="sans-serif" font-size="13" lengthAdjust="spacing" textLength="112" x="194.5" y="544.356">Pipeline response</text><polygon fill="#A80036" points="43.5,574.5547,33.5,578.5547,43.5,582.5547,39.5,578.5547" style="stroke:#A80036;stroke-width:1.0;"/><line style="stroke:#A80036;stroke-width:1.0;stroke-dasharray:2.0,2.0;" x1="37.5" x2="176.5" y1="578.5547" y2="578.5547"/><text fill="#000000" font-family="sans-serif" font-size="13" lengthAdjust="spacing" textLength="121" x="49.5" y="573.4888">Pipeline completed</text><polygon fill="#A80036" points="165.5,603.6875,175.5,607.6875,165.5,611.6875,169.5,607.6875" style="stroke:#A80036;stroke-width:1.0;"/><line style="stroke:#A80036;stroke-width:1.0;" x1="32.5" x2="171.5" y1="607.6875" y2="607.6875"/><text fill="#000000" font-family="sans-serif" font-size="13" lengthAdjust="spacing" textLength="88" x="39.5" y="602.6216">Publish article</text><text fill="#000000" font-family="sans-serif" font-size="11" lengthAdjust="spacing" textLength="73" x="484.5" y="639.8979">Time passes</text><polygon fill="#A80036" points="188.5,673.625,178.5,677.625,188.5,681.625,184.5,677.625" style="stroke:#A80036;stroke-width:1.0;"/><line style="stroke:#A80036;stroke-width:1.0;" x1="182.5" x2="678.5" y1="677.625" y2="677.625"/><text fill="#000000" font-family="sans-serif" font-size="13" lengthAdjust="spacing" textLength="170" x="194.5" y="672.5591">Crawls Blog, checking links</text><polygon fill="#A80036" points="667.5,702.7578,677.5,706.7578,667.5,710.7578,671.5,706.7578" style="stroke:#A80036;stroke-width:1.0;"/><line style="stroke:#A80036;stroke-width:1.0;stroke-dasharray:2.0,2.0;" x1="177.5" x2="673.5" y1="706.7578" y2="706.7578"/><text fill="#000000" font-family="sans-serif" font-size="13" lengthAdjust="spacing" textLength="106" x="184.5" y="701.6919">Links discovered</text><line style="stroke:#A80036;stroke-width:1.0;" x1="689.5" x2="731.5" y1="735.8906" y2="735.8906"/><line style="stroke:#A80036;stroke-width:1.0;" x1="731.5" x2="731.5" y1="735.8906" y2="748.8906"/><line style="stroke:#A80036;stroke-width:1.0;" x1="690.5" x2="731.5" y1="748.8906" y2="748.8906"/><polygon fill="#A80036" points="700.5,744.8906,690.5,748.8906,700.5,752.8906,696.5,748.8906" style="stroke:#A80036;stroke-width:1.0;"/><text fill="#000000" font-family="sans-serif" font-size="13" lengthAdjust="spacing" textLength="71" x="696.5" y="730.8247">Check links</text><polygon fill="#A80036" points="814.5,774.0234,824.5,778.0234,814.5,782.0234,818.5,778.0234" style="stroke:#A80036;stroke-width:1.0;"/><line style="stroke:#A80036;stroke-width:1.0;" x1="684.5" x2="820.5" y1="778.0234" y2="778.0234"/><text fill="#000000" font-family="sans-serif" font-size="13" lengthAdjust="spacing" textLength="72" x="691.5" y="772.9575">Links broke</text><polygon fill="#A80036" points="576.5,803.1563,566.5,807.1563,576.5,811.1563,572.5,807.1563" style="stroke:#A80036;stroke-width:1.0;"/><line style="stroke:#A80036;stroke-width:1.0;" x1="570.5" x2="820.5" y1="807.1563" y2="807.1563"/><text fill="#000000" font-family="sans-serif" font-size="13" lengthAdjust="spacing" textLength="163" x="582.5" y="802.0903">Request archived version</text><polygon fill="#A80036" points="809.5,832.2891,819.5,836.2891,809.5,840.2891,813.5,836.2891" style="stroke:#A80036;stroke-width:1.0;"/><line style="stroke:#A80036;stroke-width:1.0;stroke-dasharray:2.0,2.0;" x1="565.5" x2="815.5" y1="836.2891" y2="836.2891"/><text fill="#000000" font-family="sans-serif" font-size="13" lengthAdjust="spacing" textLength="153" x="572.5" y="831.2231">Return archived version</text><polygon fill="#A80036" points="997.5,861.4219,1007.5,865.4219,997.5,869.4219,1001.5,865.4219" style="stroke:#A80036;stroke-width:1.0;"/><line style="stroke:#A80036;stroke-width:1.0;" x1="831.5" x2="1003.5" y1="865.4219" y2="865.4219"/><text fill="#000000" font-family="sans-serif" font-size="13" lengthAdjust="spacing" textLength="154" x="838.5" y="860.356">Uploaded archived copy</text><polygon fill="#A80036" points="842.5,890.5547,832.5,894.5547,842.5,898.5547,838.5,894.5547" style="stroke:#A80036;stroke-width:1.0;"/><line style="stroke:#A80036;stroke-width:1.0;stroke-dasharray:2.0,2.0;" x1="836.5" x2="1008.5" y1="894.5547" y2="894.5547"/><text fill="#000000" font-family="sans-serif" font-size="13" lengthAdjust="spacing" textLength="113" x="848.5" y="889.4888">Return public URL</text><polygon fill="#A80036" points="188.5,919.6875,178.5,923.6875,188.5,927.6875,184.5,923.6875" style="stroke:#A80036;stroke-width:1.0;"/><line style="stroke:#A80036;stroke-width:1.0;" x1="182.5" x2="825.5" y1="923.6875" y2="923.6875"/><text fill="#000000" font-family="sans-serif" font-size="13" lengthAdjust="spacing" textLength="257" x="194.5" y="918.6216">Update article with public, archived, URL</text><!--MD5=[c6f0e533d088d847d75f6458cc2d73d5]
@startuml
actor Author as author
participant Blog as blog
participant "Archiving Script" as AS
participant "Link Finder" as LF
participant "Link Archive" as LA
participant "Link Checker" as LC
participant "Linx Fixing Process" as LFP
participant "Archive File Server" as AFS

author -> blog: Pipeline triggered\nvia pull request
blog -> AS: Present files and\n trigger archiving

AS -> LF: Present files
activate AS
activate LF
LF -> LF: Search for links
LF - -> AS: Links found
note left: Initial archive is in \nlieu of immediate\ncaching
deactivate LF

AS -> LC: Present links for checking
activate LC
LC -> LC: Check links 
LC - -> AS: Link check result
deactivate LC

AS -> LA: Present links for archiving
LA -> LA: Archive links
LA - -> AS: Links archived

AS - -> blog: Pipeline response
deactivate AS
blog - -> author: Pipeline completed
author -> blog: Publish article

...Time passes...

LC->blog: Crawls Blog, checking links
activate LC
blog- ->LC: Links discovered
LC->LC: Check links
LC->LFP: Links broke
deactivate LC


LFP->LA: Request archived version
activate LFP
LA- ->LFP: Return archived version
LFP->AFS: Uploaded archived copy
AFS- ->LFP: Return public URL
LFP->blog: Update article with public, archived, URL
deactivate LFP
@enduml

PlantUML version 1.2021.6beta4(Unknown compile time)
(GPL source distribution)
Java Runtime: Java(TM) SE Runtime Environment
JVM: Java HotSpot(TM) 64-Bit Server VM
Default Encoding: UTF-8
Language: en
Country: US
--></g></svg>