<?xml version="1.0" encoding="UTF-8" standalone="no"?>
<svg xmlns="http://www.w3.org/2000/svg" xmlns:xlink="http://www.w3.org/1999/xlink" contentScriptType="application/ecmascript" contentStyleType="text/css" height="525px" preserveAspectRatio="none" style="width:879px;height:525px;" version="1.1" viewBox="0 0 879 525" width="879px" zoomAndPan="magnify"><defs><filter height="300%" id="ft8z5f6pqnll7" width="300%" x="-1" y="-1"><feGaussianBlur result="blurOut" stdDeviation="2.0"/><feColorMatrix in="blurOut" result="blurOut2" type="matrix" values="0 0 0 0 0 0 0 0 0 0 0 0 0 0 0 0 0 0 .4 0"/><feOffset dx="4.0" dy="4.0" in="blurOut2" result="blurOut3"/><feBlend in="SourceGraphic" in2="blurOut3" mode="normal"/></filter></defs><g><ellipse cx="445.75" cy="20" fill="#000000" filter="url(#ft8z5f6pqnll7)" rx="10" ry="10" style="stroke:none;stroke-width:1.0;"/><rect fill="#FEFECE" filter="url(#ft8z5f6pqnll7)" height="33.9688" rx="12.5" ry="12.5" style="stroke:#A80036;stroke-width:1.5;" width="234" x="328.75" y="98.4023"/><text fill="#000000" font-family="sans-serif" font-size="12" lengthAdjust="spacing" textLength="214" x="338.75" y="119.541">Check for snapshots in Archive Box</text><polygon fill="#FEFECE" filter="url(#ft8z5f6pqnll7)" points="258.25,152.3711,633.25,152.3711,645.25,164.3711,633.25,176.3711,258.25,176.3711,246.25,164.3711,258.25,152.3711" style="stroke:#A80036;stroke-width:1.5;"/><text fill="#000000" font-family="sans-serif" font-size="11" lengthAdjust="spacing" textLength="375" x="258.25" y="168.1792">Does the snapshot still have the information for this link present?</text><text fill="#000000" font-family="sans-serif" font-size="11" lengthAdjust="spacing" textLength="21" x="225.25" y="161.7769">Yes</text><text fill="#000000" font-family="sans-serif" font-size="11" lengthAdjust="spacing" textLength="15" x="645.25" y="161.7769">No</text><rect fill="#FEFECE" filter="url(#ft8z5f6pqnll7)" height="33.9688" rx="12.5" ry="12.5" style="stroke:#A80036;stroke-width:1.5;" width="434" x="11" y="186.3711"/><text fill="#000000" font-family="sans-serif" font-size="12" lengthAdjust="spacing" textLength="414" x="21" y="207.5098">Find the relevant snapshot for the article e.g., the date of publication</text><rect fill="#FEFECE" filter="url(#ft8z5f6pqnll7)" height="33.9688" rx="12.5" ry="12.5" style="stroke:#A80036;stroke-width:1.5;" width="219" x="118.5" y="240.3398"/><text fill="#000000" font-family="sans-serif" font-size="12" lengthAdjust="spacing" textLength="199" x="128.5" y="261.4785">Upload the SingleFile page to S3</text><rect fill="#FEFECE" filter="url(#ft8z5f6pqnll7)" height="33.9688" rx="12.5" ry="12.5" style="stroke:#A80036;stroke-width:1.5;" width="148" x="154" y="294.3086"/><text fill="#000000" font-family="sans-serif" font-size="12" lengthAdjust="spacing" textLength="128" x="164" y="315.4473">Note the S3 identifier</text><rect fill="#FEFECE" filter="url(#ft8z5f6pqnll7)" height="33.9688" rx="12.5" ry="12.5" style="stroke:#A80036;stroke-width:1.5;" width="310" x="73" y="348.2773"/><text fill="#000000" font-family="sans-serif" font-size="12" lengthAdjust="spacing" textLength="290" x="83" y="369.416">Update the Markdown files with the S3 identifier</text><rect fill="#FEFECE" filter="url(#ft8z5f6pqnll7)" height="33.9688" rx="12.5" ry="12.5" style="stroke:#A80036;stroke-width:1.5;" width="217" x="119.5" y="402.2461"/><text fill="#000000" font-family="sans-serif" font-size="12" lengthAdjust="spacing" textLength="197" x="129.5" y="423.3848">Create a pull request and merge</text><rect fill="#FEFECE" filter="url(#ft8z5f6pqnll7)" height="33.9688" rx="12.5" ry="12.5" style="stroke:#A80036;stroke-width:1.5;" width="397" x="465" y="186.3711"/><text fill="#000000" font-family="sans-serif" font-size="12" lengthAdjust="spacing" textLength="377" x="475" y="207.5098">Wish internet history was archived immediately after browsing</text><polygon fill="#FEFECE" filter="url(#ft8z5f6pqnll7)" points="445.75,442.2148,457.75,454.2148,445.75,466.2148,433.75,454.2148,445.75,442.2148" style="stroke:#A80036;stroke-width:1.5;"/><polygon fill="#FEFECE" filter="url(#ft8z5f6pqnll7)" points="393.75,50,497.75,50,509.75,62,497.75,74,393.75,74,381.75,62,393.75,50" style="stroke:#A80036;stroke-width:1.5;"/><text fill="#000000" font-family="sans-serif" font-size="11" lengthAdjust="spacing" textLength="21" x="449.75" y="84.2104">Yes</text><text fill="#000000" font-family="sans-serif" font-size="11" lengthAdjust="spacing" textLength="104" x="393.75" y="65.8081">Is the link broken?</text><text fill="#000000" font-family="sans-serif" font-size="11" lengthAdjust="spacing" textLength="130" x="509.75" y="59.4058">No, it's a false positive</text><ellipse cx="661.75" cy="62" fill="#FFFFFF" filter="url(#ft8z5f6pqnll7)" rx="11" ry="11" style="stroke:#000000;stroke-width:1.0;"/><ellipse cx="661.75" cy="62" fill="#000000" rx="6" ry="6" style="stroke:#7F7F7F;stroke-width:1.0;"/><ellipse cx="445.75" cy="497.2148" fill="#FFFFFF" filter="url(#ft8z5f6pqnll7)" rx="11" ry="11" style="stroke:#000000;stroke-width:1.0;"/><ellipse cx="445.75" cy="497.2148" fill="#000000" rx="6" ry="6" style="stroke:#7F7F7F;stroke-width:1.0;"/><line style="stroke:#A80036;stroke-width:1.5;" x1="228" x2="228" y1="220.3398" y2="240.3398"/><polygon fill="#A80036" points="224,230.3398,228,240.3398,232,230.3398,228,234.3398" style="stroke:#A80036;stroke-width:1.0;"/><line style="stroke:#A80036;stroke-width:1.5;" x1="228" x2="228" y1="274.3086" y2="294.3086"/><polygon fill="#A80036" points="224,284.3086,228,294.3086,232,284.3086,228,288.3086" style="stroke:#A80036;stroke-width:1.0;"/><line style="stroke:#A80036;stroke-width:1.5;" x1="228" x2="228" y1="328.2773" y2="348.2773"/><polygon fill="#A80036" points="224,338.2773,228,348.2773,232,338.2773,228,342.2773" style="stroke:#A80036;stroke-width:1.0;"/><line style="stroke:#A80036;stroke-width:1.5;" x1="228" x2="228" y1="382.2461" y2="402.2461"/><polygon fill="#A80036" points="224,392.2461,228,402.2461,232,392.2461,228,396.2461" style="stroke:#A80036;stroke-width:1.0;"/><line style="stroke:#A80036;stroke-width:1.5;" x1="246.25" x2="228" y1="164.3711" y2="164.3711"/><line style="stroke:#A80036;stroke-width:1.5;" x1="228" x2="228" y1="164.3711" y2="186.3711"/><polygon fill="#A80036" points="224,176.3711,228,186.3711,232,176.3711,228,180.3711" style="stroke:#A80036;stroke-width:1.0;"/><line style="stroke:#A80036;stroke-width:1.5;" x1="645.25" x2="663.5" y1="164.3711" y2="164.3711"/><line style="stroke:#A80036;stroke-width:1.5;" x1="663.5" x2="663.5" y1="164.3711" y2="186.3711"/><polygon fill="#A80036" points="659.5,176.3711,663.5,186.3711,667.5,176.3711,663.5,180.3711" style="stroke:#A80036;stroke-width:1.0;"/><line style="stroke:#A80036;stroke-width:1.5;" x1="228" x2="228" y1="436.2148" y2="454.2148"/><line style="stroke:#A80036;stroke-width:1.5;" x1="228" x2="433.75" y1="454.2148" y2="454.2148"/><polygon fill="#A80036" points="423.75,450.2148,433.75,454.2148,423.75,458.2148,427.75,454.2148" style="stroke:#A80036;stroke-width:1.0;"/><line style="stroke:#A80036;stroke-width:1.5;" x1="663.5" x2="663.5" y1="220.3398" y2="454.2148"/><line style="stroke:#A80036;stroke-width:1.5;" x1="663.5" x2="457.75" y1="454.2148" y2="454.2148"/><polygon fill="#A80036" points="467.75,450.2148,457.75,454.2148,467.75,458.2148,463.75,454.2148" style="stroke:#A80036;stroke-width:1.0;"/><line style="stroke:#A80036;stroke-width:1.5;" x1="445.75" x2="445.75" y1="132.3711" y2="152.3711"/><polygon fill="#A80036" points="441.75,142.3711,445.75,152.3711,449.75,142.3711,445.75,146.3711" style="stroke:#A80036;stroke-width:1.0;"/><line style="stroke:#A80036;stroke-width:1.5;" x1="445.75" x2="445.75" y1="74" y2="98.4023"/><polygon fill="#A80036" points="441.75,88.4023,445.75,98.4023,449.75,88.4023,445.75,92.4023" style="stroke:#A80036;stroke-width:1.0;"/><line style="stroke:#A80036;stroke-width:1.5;" x1="509.75" x2="650.75" y1="62" y2="62"/><polygon fill="#A80036" points="640.75,58,650.75,62,640.75,66,644.75,62" style="stroke:#A80036;stroke-width:1.0;"/><line style="stroke:#A80036;stroke-width:1.5;" x1="445.75" x2="445.75" y1="466.2148" y2="486.2148"/><polygon fill="#A80036" points="441.75,476.2148,445.75,486.2148,449.75,476.2148,445.75,480.2148" style="stroke:#A80036;stroke-width:1.0;"/><line style="stroke:#A80036;stroke-width:1.5;" x1="445.75" x2="445.75" y1="30" y2="50"/><polygon fill="#A80036" points="441.75,40,445.75,50,449.75,40,445.75,44" style="stroke:#A80036;stroke-width:1.0;"/><!--MD5=[b8c403466f0be77add444e267f0d51c8]
@startuml
start

if (Is the link broken?) then (Yes)
    :Check for snapshots in Archive Box;
    if (Does the snapshot still have the information for this link present?) then (Yes)
        :Find the relevant snapshot for the article e.g., the date of publication;
        :Upload the SingleFile page to S3;
        :Note the S3 identifier;
        :Update the Markdown files with the S3 identifier;
        :Create a pull request and merge;
    else (No)
        :Wish internet history was archived immediately after browsing;
    endif
else (No, it's a false positive)
    stop
endif

stop
@enduml

PlantUML version 1.2021.6beta2(Unknown compile time)
(GPL source distribution)
Java Runtime: Java(TM) SE Runtime Environment
JVM: Java HotSpot(TM) 64-Bit Server VM
Default Encoding: UTF-8
Language: en
Country: US
--></g></svg>